<?xml version="1.0" encoding="utf-8"?>
<!-- Generator: Adobe Illustrator 19.0.0, SVG Export Plug-In . SVG Version: 6.00 Build 0)  -->
<!DOCTYPE svg PUBLIC "-//W3C//DTD SVG 1.1//EN" "http://www.w3.org/Graphics/SVG/1.1/DTD/svg11.dtd" [
	<!ENTITY ns_extend "http://ns.adobe.com/Extensibility/1.0/">
	<!ENTITY ns_ai "http://ns.adobe.com/AdobeIllustrator/10.0/">
	<!ENTITY ns_graphs "http://ns.adobe.com/Graphs/1.0/">
	<!ENTITY ns_vars "http://ns.adobe.com/Variables/1.0/">
	<!ENTITY ns_imrep "http://ns.adobe.com/ImageReplacement/1.0/">
	<!ENTITY ns_sfw "http://ns.adobe.com/SaveForWeb/1.0/">
	<!ENTITY ns_custom "http://ns.adobe.com/GenericCustomNamespace/1.0/">
	<!ENTITY ns_adobe_xpath "http://ns.adobe.com/XPath/1.0/">
]>
<svg version="1.1" id="Layer_1" xmlns:x="&ns_extend;" xmlns:i="&ns_ai;" xmlns:graph="&ns_graphs;"
	 xmlns="http://www.w3.org/2000/svg" xmlns:xlink="http://www.w3.org/1999/xlink" x="0px" y="0px" width="149.9px" height="24px"
	 viewBox="0 0 149.9 24" style="enable-background:new 0 0 149.9 24;" xml:space="preserve">
<style type="text/css">
	.st0{fill-rule:evenodd;clip-rule:evenodd;fill:#4CA4D7;}
	.st1{fill-rule:evenodd;clip-rule:evenodd;fill:#FEFEFE;}
</style>
<metadata>
	<sfw  xmlns="&ns_sfw;">
		<slices></slices>
		<sliceSourceBounds  height="24" width="149.9" bottomLeftOrigin="true" y="-640.8" x="498.2"></sliceSourceBounds>
	</sfw>
</metadata>
<path id="XMLID_46_" class="st0" d="M8.6,6.7C6.9,7.8,5.7,9.8,5.7,12c0,3.5,2.8,6.3,6.3,6.3c0.7,0,1.3-0.1,1.9-0.3l-6.4-6.4l2.9-1
	L8.6,6.7z M10.1,6l6.4,6.4l-2.9,1l1.9,4c1.7-1.1,2.9-3.1,2.9-5.3c0-3.5-2.8-6.3-6.3-6.3C11.3,5.7,10.7,5.8,10.1,6z M2.9,11.7
	c0.1-3.2,1.9-6,4.5-7.6L6.6,2.5l1.3,1.3c1.2-0.6,2.6-1,4.1-1c5,0,9.1,4.1,9.1,9.1c0,3.4-1.8,6.3-4.5,7.9l0.8,1.6l-1.3-1.3
	c-1.2,0.6-2.6,1-4.1,1c-2.3,0-4.5-0.9-6.1-2.3v3.5c1.8,1,3.9,1.6,6.1,1.6c6.6,0,12-5.4,12-12c0-6.6-5.4-12-12-12C5.4,0,0,5.4,0,12
	c0,3,1.1,5.7,2.9,7.8v-7.5l0-0.3L2.9,11.7L2.9,11.7z"/>
<path id="XMLID_42_" class="st1" d="M57,17.8V12c0-1.1,0-2.3,0-3.3l0,0c0.7,0.9,1.3,1.8,2,2.7l4.8,6.4h1.4V6.2h-1.5V12
	c0,1.1,0,2.3,0,3.3l0,0c-0.7-0.9-1.3-1.8-2-2.7l-4.8-6.4h-1.4v11.6H57z M46.7,17.8h6.8v-1.4h-5.3v-4h4.5v-1.3h-4.5V7.6h5.2V6.2h-6.7
	V17.8z M44.8,17.8v-1.4h-6.4l0,0l6.5-10.1l0,0h-8.8v1.4h6.1l0,0l-6.5,10.1l0,0H44.8z"/>
<path id="XMLID_29_" class="st1" d="M144.1,17.8h2V8h3.8V6.2h-9.6V8h3.8V17.8z M129.7,12c0,3.4,2.6,5.9,6.2,5.9
	c1.2,0,2.4-0.3,3.4-0.8V15c-0.9,0.7-2.1,1.1-3.3,1.1c-2.6,0-4.2-1.8-4.2-4.1c0-2.3,1.7-4.1,4.1-4.1c1.2,0,2.4,0.4,3.2,1V6.8
	c-0.9-0.5-2-0.8-3.2-0.8C132.2,6.1,129.7,8.7,129.7,12z M121.4,17.8h7.1V16h-5v-3.4h4.2v-1.7h-4.2V8h4.9V6.2h-6.9V17.8z M113.4,11.8
	V8h1.1c1,0,1.7,0,2.3,0.3c0.6,0.3,0.9,0.8,0.9,1.5c0,0.7-0.3,1.2-0.8,1.5c-0.5,0.3-1.2,0.4-2.4,0.4H113.4z M111.4,17.8h2v-4.3h1
	c1.6,0,2.8-0.1,3.8-0.7c1-0.6,1.6-1.6,1.6-2.9c0-1.5-0.8-2.4-1.8-3c-1-0.5-2.2-0.6-3.4-0.6h-3.2V17.8z M102.1,17.1
	c1,0.6,2.4,0.8,3.5,0.8c2.4,0,4-1.3,4-3.5c0-2.1-1.5-2.9-3.2-3.4c-1.4-0.4-2.6-0.6-2.6-1.8c0-1,0.8-1.4,1.9-1.4
	c0.9,0,2.3,0.3,3.5,1.1v-2c-1-0.6-2.3-0.9-3.4-0.9c-2.3,0-3.9,1.3-3.9,3.4c0,2,1.5,2.8,3.1,3.3c1.5,0.4,2.7,0.6,2.7,1.9
	c0,1.1-0.8,1.5-2,1.5c-1,0-2.4-0.4-3.5-1.2V17.1z M94.5,18c3.4,0,6-2.6,6-6c0-3.4-2.6-6-6-6c-3.4,0-6,2.6-6,6
	C88.6,15.4,91.1,18,94.5,18z M94.5,16.1c-2.3,0-3.9-1.8-3.9-4.1c0-2.3,1.7-4.1,3.9-4.1c2.3,0,3.9,1.8,3.9,4.1
	C98.5,14.3,96.8,16.1,94.5,16.1z M80.8,11.5V8H82c1,0,1.6,0,2.2,0.3C84.7,8.6,85,9.1,85,9.7c0,0.6-0.2,1-0.6,1.2
	c-0.5,0.3-1.1,0.5-2,0.5H80.8z M78.8,17.8h2V13h1.5l3.2,4.8H88l-3.5-5c1.6-0.4,2.6-1.6,2.6-3.2c0-1.4-0.7-2.3-1.7-2.8
	c-0.9-0.5-2.1-0.6-3.2-0.6h-3.4V17.8z M70.7,11.8V8h1.1c1,0,1.7,0,2.3,0.3c0.6,0.3,0.9,0.8,0.9,1.5c0,0.7-0.3,1.2-0.8,1.5
	c-0.5,0.3-1.2,0.4-2.4,0.4H70.7z M68.7,17.8h2v-4.3h1c1.6,0,2.8-0.1,3.8-0.7c1-0.6,1.6-1.6,1.6-2.9c0-1.5-0.8-2.4-1.8-3
	c-1-0.5-2.2-0.6-3.4-0.6h-3.2V17.8z"/>
</svg>
